Coordinates
version=1
nRows=20
nColumns=38
inDegrees=no

Units are S.I. units (second, meters, Newtons, ...)
If the header above contains a line with 'inDegrees', this indicates whether rotational values are in degrees (yes) or radians (no).

endheader
time	pelvis_tilt	pelvis_list	pelvis_rotation	pelvis_tx	pelvis_ty	pelvis_tz	hip_flexion_r	hip_adduction_r	hip_rotation_r	knee_angle_r	ankle_angle_r	subtalar_angle_r	mtp_angle_r	hip_flexion_l	hip_adduction_l	hip_rotation_l	knee_angle_l	ankle_angle_l	subtalar_angle_l	mtp_angle_l	lumbar_extension	lumbar_bending	lumbar_rotation	arm_flex_r	arm_add_r	arm_rot_r	elbow_flex_r	pro_sup_r	wrist_flex_r	wrist_dev_r	arm_flex_l	arm_add_l	arm_rot_l	elbow_flex_l	pro_sup_l	wrist_flex_l	wrist_dev_l
4.77	-0.0362916	1.51897	-1.97137	1.04954	-0.345784	0.975934	0.258234	-0.199571	-0.183684	0.253827	-0.0455374	0	0	-0.106482	0.0209822	-0.171761	0.122562	0.0676095	0	0	-0.0233376	-0.0722248	-0.10334	-0.28838	0.0628953	-1.25079	0.099639	0.661982	0	0	-0.123674	-0.167574	-0.245018	0.32399	1.40262	0	0
4.78	-0.113847	1.51811	-1.89506	1.04775	-0.348357	0.975914	0.25579	-0.20089	-0.181234	0.248301	-0.0487079	0	0	-0.1116	0.0168558	-0.172409	0.124501	0.0709705	0	0	-0.024149	-0.0692856	-0.105458	-0.288117	0.0631626	-1.25045	0.099907	0.663394	0	0	-0.126507	-0.164921	-0.242885	0.326315	1.40035	0	0
4.79	-0.179928	1.5169	-1.83017	1.04587	-0.350908	0.975851	0.253804	-0.202802	-0.17845	0.243956	-0.0516138	0	0	-0.116347	0.0130128	-0.173171	0.126974	0.0744673	0	0	-0.0250866	-0.0669641	-0.107335	-0.287811	0.0634801	-1.24844	0.0997058	0.665687	0	0	-0.128913	-0.162864	-0.239076	0.328409	1.39764	0	0
4.8	-0.233177	1.51558	-1.77766	1.0439	-0.353479	0.97573	0.252315	-0.205469	-0.175848	0.240788	-0.0543712	0	0	-0.120564	0.00953723	-0.173556	0.130195	0.0782027	0	0	-0.0256585	-0.0651811	-0.108871	-0.287383	0.0637484	-1.24441	0.0985614	0.669253	0	0	-0.130873	-0.161268	-0.233709	0.330147	1.3944	0	0
4.81	-0.275719	1.51403	-1.73573	1.04186	-0.356006	0.975533	0.251112	-0.208691	-0.172392	0.238658	-0.0570497	0	0	-0.124479	0.00642574	-0.173762	0.13406	0.0823415	0	0	-0.0264297	-0.0637425	-0.110194	-0.287934	0.0653393	-1.24169	0.101049	0.672807	0	0	-0.13342	-0.159251	-0.231058	0.334285	1.39134	0	0
4.82	-0.311275	1.51238	-1.70054	1.03973	-0.358514	0.975272	0.249788	-0.212161	-0.168085	0.23679	-0.0600646	0	0	-0.128017	0.00333076	-0.173941	0.138705	0.0870589	0	0	-0.0273267	-0.0625997	-0.111709	-0.288824	0.0674822	-1.23952	0.104643	0.676549	0	0	-0.135854	-0.157493	-0.22872	0.338595	1.3889	0	0
4.83	-0.343583	1.51068	-1.66804	1.03753	-0.361035	0.974965	0.248154	-0.215742	-0.163776	0.235153	-0.0634115	0	0	-0.131171	5.53899e-05	-0.173806	0.14409	0.092174	0	0	-0.0281246	-0.0615662	-0.113568	-0.289492	0.0691556	-1.23745	0.107153	0.680977	0	0	-0.137766	-0.156141	-0.225413	0.341926	1.38654	0	0
4.84	-0.37577	1.50916	-1.63502	1.03528	-0.363583	0.974627	0.246438	-0.219248	-0.159818	0.233696	-0.0669055	0	0	-0.133543	-0.00364381	-0.173286	0.150489	0.0976679	0	0	-0.0287222	-0.0603817	-0.115825	-0.290025	0.0701567	-1.23427	0.107537	0.685751	0	0	-0.139149	-0.155404	-0.219837	0.344264	1.3839	0	0
4.85	-0.40162	1.50801	-1.60779	1.03295	-0.366075	0.974242	0.244532	-0.222842	-0.155486	0.231585	-0.0710307	0	0	-0.134185	-0.00753991	-0.17294	0.159212	0.104169	0	0	-0.0283076	-0.0598242	-0.116792	-0.291791	0.0737929	-1.20772	0.11222	0.694197	0	0	-0.142998	-0.157185	-0.192591	0.353597	1.33947	0	0
4.86	-0.419567	1.50699	-1.58873	1.03057	-0.368598	0.973785	0.243033	-0.226972	-0.151212	0.230146	-0.0748015	0	0	-0.135119	-0.0106418	-0.171503	0.16687	0.109666	0	0	-0.0278059	-0.0591395	-0.117183	-0.292822	0.0743624	-1.21049	0.110857	0.697874	0	0	-0.142233	-0.156328	-0.18956	0.353215	1.34305	0	0
4.87	-0.432772	1.50594	-1.57443	1.02811	-0.371047	0.973283	0.241207	-0.231054	-0.145499	0.228039	-0.0793851	0	0	-0.135193	-0.0138415	-0.170978	0.17618	0.115844	0	0	-0.0273989	-0.058716	-0.117248	-0.293804	0.0751877	-1.21268	0.110263	0.701831	0	0	-0.141802	-0.155545	-0.186765	0.35417	1.34615	0	0
4.88	-0.442416	1.505	-1.56353	1.02554	-0.373467	0.972737	0.239181	-0.235062	-0.138966	0.225707	-0.0844322	0	0	-0.134608	-0.0171234	-0.17082	0.186537	0.122094	0	0	-0.02703	-0.0585621	-0.117325	-0.293958	0.0760355	-1.21424	0.110771	0.70544	0	0	-0.141446	-0.155066	-0.184209	0.355568	1.34919	0	0
4.89	-0.448841	1.50415	-1.55568	1.02286	-0.375847	0.972183	0.236536	-0.238892	-0.132224	0.222493	-0.0897679	0	0	-0.133806	-0.020389	-0.170082	0.197027	0.128609	0	0	-0.0264494	-0.0585423	-0.116987	-0.293557	0.0766958	-1.21445	0.110521	0.70895	0	0	-0.140488	-0.15486	-0.180948	0.356827	1.35146	0	0
4.9	-0.454556	1.50333	-1.54854	1.02006	-0.378218	0.97162	0.233327	-0.242451	-0.125584	0.218511	-0.0951631	0	0	-0.133046	-0.0237941	-0.168952	0.207571	0.135205	0	0	-0.0258029	-0.0584577	-0.11615	-0.293412	0.0774731	-1.21447	0.110949	0.712286	0	0	-0.139388	-0.154626	-0.177517	0.358158	1.35235	0	0
4.91	-0.460479	1.50266	-1.54122	1.01716	-0.380559	0.971017	0.229863	-0.245729	-0.118927	0.214069	-0.100524	0	0	-0.131981	-0.0273348	-0.167663	0.218523	0.142029	0	0	-0.0251875	-0.0582047	-0.114939	-0.293795	0.0780151	-1.21457	0.109279	0.717033	0	0	-0.138064	-0.154552	-0.173159	0.359345	1.35156	0	0
4.92	-0.467971	1.50243	-1.53234	1.01417	-0.382861	0.970333	0.22655	-0.24866	-0.112684	0.209257	-0.106018	0	0	-0.130152	-0.0310767	-0.16605	0.230092	0.14907	0	0	-0.0244941	-0.0577132	-0.113697	-0.293607	0.0780049	-1.21505	0.106961	0.722768	0	0	-0.136979	-0.154942	-0.168791	0.361479	1.35161	0	0
4.93	-0.474268	1.50244	-1.52455	1.01109	-0.385121	0.969585	0.223204	-0.251461	-0.106885	0.204318	-0.11149	0	0	-0.127937	-0.0349517	-0.164478	0.241861	0.155961	0	0	-0.0234184	-0.0572147	-0.111799	-0.293212	0.0783221	-1.21661	0.107263	0.728162	0	0	-0.135547	-0.155473	-0.164158	0.363523	1.35218	0	0
4.94	-0.479234	1.50266	-1.51798	1.0079	-0.387372	0.968782	0.219877	-0.254151	-0.101524	0.199389	-0.116327	0	0	-0.125745	-0.0389065	-0.163009	0.253124	0.162558	0	0	-0.0216263	-0.0567977	-0.109622	-0.293039	0.078607	-1.21845	0.107698	0.7336	0	0	-0.134022	-0.1561	-0.15922	0.365069	1.35231	0	0
4.95	-0.482514	1.50319	-1.51311	1.00459	-0.389589	0.967916	0.216519	-0.25664	-0.0962126	0.193968	-0.12076	0	0	-0.123353	-0.0429124	-0.161489	0.264153	0.169227	0	0	-0.0197395	-0.0564056	-0.106916	-0.292864	0.0785199	-1.22104	0.106291	0.741136	0	0	-0.132689	-0.15671	-0.154836	0.367633	1.35185	0	0
4.96	-0.488082	1.50347	-1.50576	1.00118	-0.39178	0.967026	0.211984	-0.258528	-0.0905188	0.187279	-0.125406	0	0	-0.12122	-0.0472859	-0.160005	0.275362	0.176145	0	0	-0.0187565	-0.0554761	-0.103337	-0.2899	0.0764609	-1.25384	0.099464	0.822912	0	0	-0.131466	-0.158074	-0.144838	0.37233	1.34308	0	0
